<?xml version="1.0" standalone="no"?>
<!DOCTYPE svg PUBLIC "-//W3C//DTD SVG 20010904//EN"
 "http://www.w3.org/TR/2001/REC-SVG-20010904/DTD/svg10.dtd">
<svg version="1.0" xmlns="http://www.w3.org/2000/svg"
 width="512.000000pt" height="512.000000pt" viewBox="0 0 512.000000 512.000000"
 preserveAspectRatio="xMidYMid meet">

<g transform="translate(0.000000,512.000000) scale(0.100000,-0.100000)"
fill="#000000" stroke="none">
<path d="M1665 4911 c-16 -4 -43 -15 -60 -24 -49 -26 -1497 -1035 -1531 -1067
-37 -34 -64 -88 -71 -140 -8 -57 21 -140 62 -182 20 -19 392 -252 828 -516
586 -356 806 -484 843 -493 41 -10 60 -9 105 4 106 32 169 115 169 225 0 52
-10 78 -110 292 -60 128 -110 235 -110 237 0 2 496 2 1103 1 l1102 -3 57 -28
c64 -32 111 -80 142 -146 21 -46 21 -53 21 -896 0 -843 0 -850 -21 -896 -29
-63 -77 -114 -132 -141 l-47 -23 -1265 -5 -1265 -5 -56 -23 c-112 -45 -202
-142 -235 -251 -12 -42 -15 -88 -12 -200 3 -134 5 -151 30 -203 54 -115 168
-198 301 -219 40 -6 524 -9 1313 -6 1241 3 1250 3 1345 25 508 116 869 506
938 1015 15 109 15 1741 0 1862 -31 252 -144 487 -326 676 -136 142 -297 243
-480 305 -179 60 -114 57 -1385 61 -643 2 -1168 6 -1168 8 0 2 40 103 90 223
49 120 94 239 99 263 11 47 1 110 -24 159 -40 77 -164 132 -250 111z"/>
</g>
</svg>
