<?xml version="1.0" standalone="no"?>
<!DOCTYPE svg PUBLIC "-//W3C//DTD SVG 20010904//EN"
 "http://www.w3.org/TR/2001/REC-SVG-20010904/DTD/svg10.dtd">
<svg version="1.0" xmlns="http://www.w3.org/2000/svg"
 width="512.000000pt" height="512.000000pt" viewBox="0 0 512.000000 512.000000"
 preserveAspectRatio="xMidYMid meet">

<g transform="translate(0.000000,512.000000) scale(0.100000,-0.100000)"
fill="#000000" stroke="none">
<path d="M2159 4717 c-19 -12 -44 -42 -56 -67 -21 -40 -23 -58 -23 -205 0 -88
5 -176 10 -195 18 -66 93 -120 166 -120 l34 0 0 -100 0 -100 -170 0 c-200 0
-258 -10 -307 -53 -69 -61 -73 -80 -73 -374 l0 -263 -195 0 c-221 0 -246 -6
-304 -76 -98 -119 -26 -301 131 -329 27 -5 38 -13 42 -30 3 -13 26 -113 51
-222 25 -109 48 -205 50 -213 4 -11 -9 -20 -43 -32 -172 -62 -257 -260 -179
-420 32 -65 89 -121 156 -152 45 -20 60 -21 544 -24 l497 -3 0 -339 0 -340
-32 0 c-121 -1 -299 -75 -390 -163 -114 -110 -176 -238 -185 -390 -9 -142 -98
-127 777 -127 592 0 750 3 764 13 43 32 22 207 -42 337 -42 85 -146 199 -225
244 -71 42 -172 74 -254 81 l-73 7 0 339 0 338 503 3 502 3 52 27 c64 34 115
86 145 147 19 37 23 62 23 131 0 72 -4 93 -27 136 -36 68 -107 129 -174 151
-46 14 -53 20 -49 37 3 12 25 109 50 216 25 107 47 204 50 216 3 16 18 24 58
33 178 39 225 262 78 366 l-43 30 -206 5 -207 5 -5 275 c-5 290 -8 309 -56
351 -55 48 -80 53 -286 57 l-198 4 0 99 0 99 35 0 c48 0 108 32 137 72 22 31
23 42 26 228 3 191 3 196 -20 230 -13 19 -39 45 -57 57 l-34 23 -467 0 -467 0
-34 -23z m941 -126 c12 -23 14 -290 2 -309 -7 -10 -102 -12 -443 -10 l-434 3
-3 159 c-2 121 1 161 10 168 7 4 203 8 435 8 407 0 423 -1 433 -19z m-200
-561 l0 -100 -240 0 -240 0 0 100 0 100 240 0 240 0 0 -100z m529 -266 c20
-26 21 -39 21 -295 l0 -268 -31 -45 c-54 -76 -48 -198 11 -251 16 -15 20 -31
20 -89 0 -49 -5 -79 -16 -94 l-15 -22 -754 0 c-672 0 -755 2 -769 16 -12 11
-16 36 -16 90 0 64 4 80 26 114 49 75 49 171 -2 237 l-24 32 0 285 c0 283 0
285 22 300 20 14 109 16 764 16 l743 0 20 -26z m-1638 -683 c24 -30 24 -52 -2
-85 l-21 -26 -200 2 -201 3 -20 27 c-17 23 -19 33 -11 55 17 49 41 54 247 51
185 -3 189 -3 208 -27z m2173 8 c32 -25 35 -70 6 -99 -19 -19 -33 -20 -213
-20 -219 0 -237 5 -237 65 0 24 7 39 26 54 25 20 40 21 209 21 169 0 184 -1
209 -21z m-2222 -330 c4 -57 11 -79 34 -112 40 -56 102 -87 176 -87 l58 0 0
-100 0 -100 -177 2 -177 3 -52 225 c-29 124 -53 228 -53 233 -1 4 41 7 93 7
l93 0 5 -71z m2023 49 c-3 -13 -27 -117 -54 -233 l-48 -210 -176 -3 -177 -2 0
100 0 100 58 0 c66 0 124 24 164 66 36 39 48 74 48 145 l0 59 95 0 c94 0 95 0
90 -22z m-595 -348 l0 -100 -510 0 -510 0 0 100 0 100 510 0 510 0 0 -100z
m657 -259 c131 -60 125 -259 -10 -310 -19 -8 -382 -11 -1160 -11 l-1132 0 -39
23 c-79 45 -68 47 220 47 235 0 270 2 286 17 22 20 23 70 1 95 -15 17 -38 18
-300 18 -276 0 -283 0 -283 20 0 28 67 98 104 109 18 5 512 9 1151 10 1080 1
1122 0 1162 -18z m-1127 -801 l0 -340 -35 0 -35 0 0 340 0 340 35 0 35 0 0
-340z m343 -522 c141 -68 225 -177 261 -340 l6 -28 -646 0 -647 0 7 43 c17
110 122 254 225 310 95 52 132 57 436 54 l280 -2 78 -37z"/>
<path d="M2249 3323 c-117 -72 -50 -266 85 -249 103 12 156 126 99 212 -34 52
-129 71 -184 37z"/>
<path d="M2926 3319 c-55 -43 -72 -123 -39 -180 24 -40 94 -73 137 -65 62 12
116 73 116 131 0 43 -27 94 -62 115 -45 27 -117 27 -152 -1z"/>
<path d="M2100 2053 c-15 -19 -19 -35 -15 -53 11 -46 27 -50 206 -50 162 0
168 1 183 22 22 31 20 64 -4 88 -18 18 -33 20 -184 20 l-165 0 -21 -27z"/>
<path d="M4022 4140 c-59 -36 -78 -118 -42 -177 74 -122 250 -73 250 69 0 100
-119 162 -208 108z"/>
<path d="M961 1553 c-67 -33 -92 -124 -51 -190 54 -90 197 -81 237 14 50 121
-69 233 -186 176z"/>
</g>
</svg>
